HIERARCHY
ROOT hip
{
	OFFSET 0.000000 0.000000 0.000000 
	CHANNELS 6 Xposition Yposition Zposition Xrotation Zrotation Yrotation
	JOINT abdomen
	{
		OFFSET 0.000000 3.402643 0.000000 
		CHANNELS 3 Xrotation Zrotation Yrotation
		JOINT chest
		{
			OFFSET 0.000000 8.438565 -0.680529 
			CHANNELS 3 Xrotation Zrotation Yrotation
			JOINT neck
			{
				OFFSET 0.000000 10.207942 -0.272212 
				CHANNELS 3 Xrotation Zrotation Yrotation
				JOINT head
				{
					OFFSET 0.000000 3.130431 0.000000 
					CHANNELS 3 Xrotation Zrotation Yrotation
					End Site
					{
						OFFSET 0.000000 3.130435 0.000000 
					}
				}
			}
			JOINT lCollar
			{
				OFFSET 3.470700 6.669187 -0.816635 
				CHANNELS 3 Yrotation Zrotation Xrotation
				JOINT lShldr
				{
					OFFSET 3.198488 0.000000 0.000000 
					CHANNELS 3 Zrotation Yrotation Xrotation
					JOINT lForeArm
					{
						OFFSET 10.139888 0.000000 0.000000 
						CHANNELS 3 Yrotation Zrotation Xrotation
						JOINT lHand
						{
							OFFSET 8.370511 0.000000 0.000000 
							CHANNELS 3 Zrotation Yrotation Xrotation
							End Site
							{
								OFFSET 4.083176 0.000000 0.000000 
							}
						}
					}
				}
			}
			JOINT rCollar
			{
				OFFSET -3.470700 6.669187 -0.816635 
				CHANNELS 3 Yrotation Zrotation Xrotation
				JOINT rShldr
				{
					OFFSET -3.198488 0.000000 0.000000 
					CHANNELS 3 Zrotation Yrotation Xrotation
					JOINT rForeArm
					{
						OFFSET -10.139888 0.000000 0.000000 
						CHANNELS 3 Yrotation Zrotation Xrotation
						JOINT rHand
						{
							OFFSET -8.370511 0.000000 0.000000 
							CHANNELS 3 Zrotation Yrotation Xrotation
							End Site
							{
								OFFSET -4.083176 0.000000 0.000000 
							}
						}
					}
				}
			}
		}
	}
	JOINT lThigh
	{
		OFFSET 5.308129 -1.633274 1.361059 
		CHANNELS 3 Xrotation Zrotation Yrotation
		JOINT lShin
		{
			OFFSET -2.041588 -20.007561 0.000000 
			CHANNELS 3 Xrotation Zrotation Yrotation
			JOINT lFoot
			{
				OFFSET 0.000000 -19.190928 -1.224953 
				CHANNELS 3 Xrotation Yrotation Zrotation
				End Site
				{
					OFFSET 0.000000 -2.449906 4.627600 
				}
			}
		}
	}
	JOINT rThigh
	{
		OFFSET -5.308129 -1.633274 1.361059 
		CHANNELS 3 Xrotation Zrotation Yrotation
		JOINT rShin
		{
			OFFSET 2.041588 -20.007561 0.000000 
			CHANNELS 3 Xrotation Zrotation Yrotation
			JOINT rFoot
			{
				OFFSET 0.000000 -19.190928 -1.224953 
				CHANNELS 3 Xrotation Yrotation Zrotation
				End Site
				{
					OFFSET 0.000000 -2.449906 4.627600 
				}
			}
		}
	}
}
MOTION
Frames: 11
Frame Time: 0.033333
-2.085759 48.613796 0.580076 0.951217 0.235993 14.843902 0.000000 0.000000 0.000000 -4.860390 -2.292719 -2.512053 2.041960 -8.362937 -23.419191 -10.042118 5.679639 -25.141401 -9.786401 -9.063631 -4.590036 -31.680511 33.876308 102.384903 -109.500351 31.011829 62.147167 61.437130 -2.176940 -6.702998 5.621911 13.896509 -4.795232 50.462330 -12.359235 27.368359 40.622318 14.863682 19.487766 -13.754343 -7.476580 -3.078650 0.175543 2.816214 6.005021 13.521747 -2.695558 23.626570 -12.674819 0.716112 -6.414994 1.559700 -13.800874 -11.728628 -2.001254 1.189321 -16.135052 6.080157 0.593414 11.129355 
-2.135514 48.610287 0.608758 1.016460 0.264538 14.658405 0.000000 0.000000 0.000000 -4.888245 -2.409954 -2.424249 2.188569 -8.618482 -23.079424 -9.529530 6.587929 -25.226021 -9.960362 -9.468426 -4.670587 -31.236094 34.111694 102.533554 -109.783958 31.091473 62.360584 61.277199 -2.075049 -6.640164 5.723443 13.769084 -4.813334 50.500336 -11.923070 27.519089 40.215389 14.835050 20.720749 -14.969871 -8.265794 -2.941214 0.165833 2.808603 5.965632 13.478975 -2.653764 23.809204 -12.619130 0.769466 -6.561222 1.463959 -13.797269 -11.702823 -1.989448 1.208393 -15.929864 5.954113 0.589251 11.092355 
-2.196048 48.612041 0.620357 0.908381 0.189065 14.531363 0.000000 0.000000 0.000000 -4.720579 -2.419658 -2.453520 2.111400 -8.596117 -22.860113 -8.328657 6.825572 -24.933752 -9.887581 -9.294924 -4.503280 -31.610846 33.826134 102.300346 -109.547737 31.022419 62.241821 61.670647 -2.399451 -6.843688 5.690147 13.725447 -4.650637 50.354832 -11.283265 27.100985 40.412003 14.820890 19.931568 -13.645658 -7.781365 -3.044565 0.116692 2.976087 6.038015 13.659061 -2.627707 23.908388 -12.630983 0.748002 -6.626934 1.384980 -13.656087 -11.666945 -1.746240 1.306055 -15.793281 5.789385 0.539290 10.991049 
-2.256410 48.612526 0.654745 0.817809 0.066205 14.423841 0.000000 0.000000 0.000000 -4.592371 -2.448928 -2.453522 1.965694 -8.449714 -22.593557 -7.000428 6.954638 -24.527161 -9.808436 -8.747932 -4.340677 -32.179939 33.763016 102.372818 -109.454254 31.108974 62.229218 61.306236 -2.295856 -6.763723 5.718711 14.015165 -4.556116 49.992748 -10.789547 26.985121 40.527122 14.817940 20.013857 -13.936870 -7.666437 -3.048313 0.136062 3.238930 6.221982 13.825884 -2.647648 23.924885 -12.683271 0.764528 -6.728334 1.561478 -13.406368 -11.477556 -1.955608 1.217120 -15.840544 5.792121 0.541492 10.971044 
-2.307866 48.611229 0.693653 0.893608 0.056719 14.531261 0.000000 0.000000 0.000000 -4.593210 -2.458738 -2.424253 1.803443 -8.545885 -22.500046 -5.958688 6.996121 -24.421879 -10.112473 -9.242816 -4.411579 -31.615183 33.848007 102.608566 -109.729019 31.174719 62.372066 61.305122 -2.286480 -6.746625 5.715640 13.888835 -4.544253 50.006042 -10.453039 26.772385 40.534462 14.762066 19.580275 -13.598098 -7.629484 -3.058601 0.029104 3.264240 6.149292 13.835505 -2.579269 23.804972 -12.624886 0.741596 -6.804438 1.445063 -13.398476 -11.529917 -1.733587 1.334864 -15.920502 5.568668 0.524080 10.902778 
-2.384669 48.625431 0.728779 0.964190 -0.047235 14.677738 0.000000 0.000000 0.000000 -4.544804 -2.585407 -2.512496 1.928286 -8.346212 -22.507843 -5.778945 7.271238 -24.288864 -10.010271 -8.703411 -4.338125 -32.135384 33.659046 102.923714 -109.688057 31.331694 62.254429 61.098946 -2.014874 -6.589084 5.767679 14.404034 -4.553781 49.282597 -10.149382 26.958776 40.978001 14.807534 19.023643 -13.680029 -7.714426 -3.047923 -0.039377 3.457782 6.223746 13.734811 -2.586913 23.585651 -12.516904 0.767455 -6.833022 1.520726 -13.194827 -11.447965 -1.964612 1.314399 -16.166313 5.580876 0.495526 10.780461 
-2.441329 48.638222 0.744076 0.898060 -0.113368 14.667995 0.000000 0.000000 0.000000 -4.436089 -2.516921 -2.610051 2.078969 -8.401309 -22.342474 -5.095156 7.531936 -24.106787 -9.862130 -8.589535 -4.200566 -32.356117 33.612389 102.989853 -109.563751 31.358747 62.393948 61.384106 -1.869017 -6.515762 5.720714 14.171395 -4.438143 49.445374 -9.548384 27.018661 40.713123 14.870711 18.928431 -13.503670 -7.712228 -3.059733 0.068251 3.607751 6.337799 13.630436 -2.618310 23.657473 -12.444119 0.749232 -6.851956 1.464278 -13.074396 -11.385269 -1.808269 1.323881 -16.217184 5.595397 0.474696 10.732189 
-2.505068 48.638371 0.766997 0.942040 -0.056643 14.824222 0.000000 0.000000 0.000000 -4.365982 -2.634148 -2.532008 2.065416 -8.361955 -22.241758 -4.151849 7.295536 -23.857132 -9.980539 -8.557909 -4.160990 -32.417248 33.650120 102.858627 -109.526031 31.315929 62.323154 61.078064 -1.994404 -6.567522 5.705068 14.197674 -4.369806 49.339428 -9.264221 26.997511 40.538364 14.924761 19.093737 -13.612797 -7.819938 -3.049740 0.057984 3.621726 6.270348 13.550254 -2.558126 23.581055 -12.328186 0.767880 -6.960212 1.522277 -13.042759 -11.375710 -1.883547 1.296587 -16.425341 5.433258 0.489493 10.671539 
-2.553440 48.642139 0.770580 1.051888 -0.047184 14.912115 0.000000 0.000000 0.000000 -4.296250 -2.594985 -2.600738 2.083531 -8.549821 -22.134687 -3.927659 7.389274 -23.783512 -10.043169 -8.855128 -4.114340 -32.255611 33.703575 102.613792 -109.529053 31.223930 62.385826 61.569382 -2.304487 -6.785990 5.564317 13.998011 -4.294975 49.556133 -8.844954 26.768183 40.383297 14.913552 19.852327 -13.486293 -7.689982 -3.057657 -0.068542 3.640564 6.236883 13.481054 -2.538076 23.499651 -12.225865 0.744602 -6.970265 1.180450 -13.054331 -11.270749 -1.347681 1.267542 -16.534199 5.194800 0.490364 10.701656 
-2.612540 48.649422 0.793464 1.002118 -0.160403 14.941456 0.000000 0.000000 0.000000 -4.125330 -2.497449 -2.590538 2.090775 -8.327728 -21.894241 -3.911790 6.651174 -23.309944 -9.951921 -8.664971 -3.937877 -32.580608 33.767082 102.216858 -109.297005 31.090332 62.249374 61.589516 -2.328648 -6.794635 5.597129 14.475734 -4.174767 49.088837 -8.627861 26.865551 40.627441 14.926044 19.397987 -13.448171 -7.944094 -3.038027 -0.068625 3.902314 6.421205 13.551685 -2.627465 23.261141 -12.255365 0.744533 -6.970883 1.317646 -12.839051 -11.200503 -1.587126 1.256475 -16.663208 5.271007 0.454306 10.615153 
-2.660855 48.650833 0.802892 1.072992 -0.113143 15.097682 0.000000 0.000000 0.000000 -4.006845 -2.507165 -2.610050 1.784496 -8.458127 -21.683498 -3.185442 6.351542 -22.990730 -10.070904 -8.612631 -3.847823 -32.574524 33.902092 102.174454 -109.293205 31.084146 62.232422 61.386456 -2.349000 -6.799488 5.560461 14.593729 -4.075913 49.187855 -8.508699 26.820629 40.716206 14.879965 18.820765 -13.839572 -7.943274 -3.019402 -0.088165 3.893949 6.372178 13.440656 -2.615075 23.171568 -12.135950 0.749012 -6.988193 1.315848 -12.872584 -11.282500 -1.575313 1.323990 -16.713238 5.113199 0.449872 10.537682 
